<svg xmlns="http://www.w3.org/2000/svg" xmlns:xlink="http://www.w3.org/1999/xlink" width="500" zoomAndPan="magnify" viewBox="0 0 375 149.999998" height="200" preserveAspectRatio="xMidYMid meet" version="1.0"><defs><g/><clipPath id="8fe2406b03"><path d="M 108 34 L 136 34 L 136 73 L 108 73 Z M 108 34 " clip-rule="nonzero"/></clipPath><clipPath id="43ab06ee62"><path d="M 9.542969 21.207031 L 132.726562 9.371094 L 144.207031 128.820312 L 21.023438 140.65625 Z M 9.542969 21.207031 " clip-rule="nonzero"/></clipPath><clipPath id="8e4ac93330"><path d="M 9.542969 21.207031 L 132.726562 9.371094 L 144.207031 128.820312 L 21.023438 140.65625 Z M 9.542969 21.207031 " clip-rule="nonzero"/></clipPath><clipPath id="1f51b74e32"><path d="M 81 19 L 105 19 L 105 62 L 81 62 Z M 81 19 " clip-rule="nonzero"/></clipPath><clipPath id="83a9d50180"><path d="M 9.542969 21.207031 L 132.726562 9.371094 L 144.207031 128.820312 L 21.023438 140.65625 Z M 9.542969 21.207031 " clip-rule="nonzero"/></clipPath><clipPath id="21bd0aa735"><path d="M 9.542969 21.207031 L 132.726562 9.371094 L 144.207031 128.820312 L 21.023438 140.65625 Z M 9.542969 21.207031 " clip-rule="nonzero"/></clipPath><clipPath id="28b5170aa3"><path d="M 45 28 L 72 28 L 72 66 L 45 66 Z M 45 28 " clip-rule="nonzero"/></clipPath><clipPath id="6a3308eb46"><path d="M 9.542969 21.207031 L 132.726562 9.371094 L 144.207031 128.820312 L 21.023438 140.65625 Z M 9.542969 21.207031 " clip-rule="nonzero"/></clipPath><clipPath id="d805c8059c"><path d="M 9.542969 21.207031 L 132.726562 9.371094 L 144.207031 128.820312 L 21.023438 140.65625 Z M 9.542969 21.207031 " clip-rule="nonzero"/></clipPath><clipPath id="327d43c48d"><path d="M 21 58 L 47 58 L 47 92 L 21 92 Z M 21 58 " clip-rule="nonzero"/></clipPath><clipPath id="ada0296b09"><path d="M 9.542969 21.207031 L 132.726562 9.371094 L 144.207031 128.820312 L 21.023438 140.65625 Z M 9.542969 21.207031 " clip-rule="nonzero"/></clipPath><clipPath id="a62f2d3829"><path d="M 9.542969 21.207031 L 132.726562 9.371094 L 144.207031 128.820312 L 21.023438 140.65625 Z M 9.542969 21.207031 " clip-rule="nonzero"/></clipPath><clipPath id="d7f7f78b65"><path d="M 52 70 L 131 70 L 131 137 L 52 137 Z M 52 70 " clip-rule="nonzero"/></clipPath><clipPath id="3ff2a029d1"><path d="M 9.542969 21.207031 L 132.726562 9.371094 L 144.207031 128.820312 L 21.023438 140.65625 Z M 9.542969 21.207031 " clip-rule="nonzero"/></clipPath><clipPath id="bef3394fcd"><path d="M 9.542969 21.207031 L 132.726562 9.371094 L 144.207031 128.820312 L 21.023438 140.65625 Z M 9.542969 21.207031 " clip-rule="nonzero"/></clipPath><clipPath id="b1feb71f9d"><path d="M 46 63 L 126 63 L 126 131 L 46 131 Z M 46 63 " clip-rule="nonzero"/></clipPath><clipPath id="f39511b30f"><path d="M 9.542969 21.207031 L 132.726562 9.371094 L 144.207031 128.820312 L 21.023438 140.65625 Z M 9.542969 21.207031 " clip-rule="nonzero"/></clipPath><clipPath id="5a46c32da0"><path d="M 9.542969 21.207031 L 132.726562 9.371094 L 144.207031 128.820312 L 21.023438 140.65625 Z M 9.542969 21.207031 " clip-rule="nonzero"/></clipPath><clipPath id="6a2fc7dd95"><path d="M 76 14 L 104 14 L 104 59 L 76 59 Z M 76 14 " clip-rule="nonzero"/></clipPath><clipPath id="8761a4010c"><path d="M 9.542969 21.207031 L 132.726562 9.371094 L 144.207031 128.820312 L 21.023438 140.65625 Z M 9.542969 21.207031 " clip-rule="nonzero"/></clipPath><clipPath id="7b49bfc397"><path d="M 9.542969 21.207031 L 132.726562 9.371094 L 144.207031 128.820312 L 21.023438 140.65625 Z M 9.542969 21.207031 " clip-rule="nonzero"/></clipPath><clipPath id="58913de824"><path d="M 107 29 L 136 29 L 136 70 L 107 70 Z M 107 29 " clip-rule="nonzero"/></clipPath><clipPath id="3e33013fea"><path d="M 9.542969 21.207031 L 132.726562 9.371094 L 144.207031 128.820312 L 21.023438 140.65625 Z M 9.542969 21.207031 " clip-rule="nonzero"/></clipPath><clipPath id="a000d00db6"><path d="M 9.542969 21.207031 L 132.726562 9.371094 L 144.207031 128.820312 L 21.023438 140.65625 Z M 9.542969 21.207031 " clip-rule="nonzero"/></clipPath><clipPath id="b542ae1679"><path d="M 15 52 L 49 52 L 49 89 L 15 89 Z M 15 52 " clip-rule="nonzero"/></clipPath><clipPath id="aafe29454a"><path d="M 9.542969 21.207031 L 132.726562 9.371094 L 144.207031 128.820312 L 21.023438 140.65625 Z M 9.542969 21.207031 " clip-rule="nonzero"/></clipPath><clipPath id="0595c3f83c"><path d="M 9.542969 21.207031 L 132.726562 9.371094 L 144.207031 128.820312 L 21.023438 140.65625 Z M 9.542969 21.207031 " clip-rule="nonzero"/></clipPath><clipPath id="3649dbd3a2"><path d="M 38 22 L 70 22 L 70 64 L 38 64 Z M 38 22 " clip-rule="nonzero"/></clipPath><clipPath id="00a1772530"><path d="M 9.542969 21.207031 L 132.726562 9.371094 L 144.207031 128.820312 L 21.023438 140.65625 Z M 9.542969 21.207031 " clip-rule="nonzero"/></clipPath><clipPath id="29ce85a772"><path d="M 9.542969 21.207031 L 132.726562 9.371094 L 144.207031 128.820312 L 21.023438 140.65625 Z M 9.542969 21.207031 " clip-rule="nonzero"/></clipPath></defs><g clip-path="url(#8fe2406b03)"><g clip-path="url(#43ab06ee62)"><g clip-path="url(#8e4ac93330)"><path fill="#aacfa8" d="M 131.660156 35.6875 C 128.792969 33.550781 124.589844 34.019531 121.59375 35.972656 C 118.601562 37.929688 116.609375 41.078125 114.992188 44.265625 C 111.742188 50.6875 103.683594 67.804688 113.886719 72.15625 C 117.375 73.640625 121.5625 72.574219 124.554688 70.246094 C 127.546875 67.921875 129.507812 64.519531 131.015625 61.039062 C 132.867188 56.753906 134.140625 52.214844 134.785156 47.589844 C 135.378906 43.316406 135.117188 38.261719 131.660156 35.6875 Z M 131.660156 35.6875 " fill-opacity="1" fill-rule="nonzero"/></g></g></g><g clip-path="url(#1f51b74e32)"><g clip-path="url(#83a9d50180)"><g clip-path="url(#21bd0aa735)"><path fill="#aacfa8" d="M 88.4375 60.296875 C 100.695312 66.019531 105.9375 41.125 104.835938 33.714844 C 103.972656 27.929688 100.433594 22.3125 94.996094 20.164062 C 92.425781 19.148438 89.3125 19.011719 87.054688 20.597656 C 84.769531 22.207031 83.878906 25.128906 83.308594 27.863281 C 81.65625 35.8125 78.628906 55.71875 88.4375 60.296875 Z M 88.4375 60.296875 " fill-opacity="1" fill-rule="nonzero"/></g></g></g><g clip-path="url(#28b5170aa3)"><g clip-path="url(#6a3308eb46)"><g clip-path="url(#d805c8059c)"><path fill="#aacfa8" d="M 57.710938 64.113281 C 64.222656 68.964844 71.59375 62.511719 71.945312 55.542969 C 72.121094 51.980469 71.070312 48.476562 69.886719 45.109375 C 68.449219 41.039062 66.753906 36.96875 63.964844 33.675781 C 62.113281 31.488281 59.742188 29.65625 56.984375 28.867188 C 54.230469 28.078125 51.070312 28.441406 48.808594 30.199219 C 45.164062 33.042969 44.808594 38.445312 45.671875 42.988281 C 47.070312 50.363281 51.507812 59.492188 57.710938 64.113281 Z M 57.710938 64.113281 " fill-opacity="1" fill-rule="nonzero"/></g></g></g><g clip-path="url(#327d43c48d)"><g clip-path="url(#ada0296b09)"><g clip-path="url(#a62f2d3829)"><path fill="#aacfa8" d="M 32.734375 58.699219 C 29.550781 57.464844 25.71875 58.777344 23.523438 61.386719 C 21.328125 64 20.644531 67.664062 21.171875 71.035156 C 21.699219 74.410156 23.332031 77.519531 25.328125 80.289062 C 28.566406 84.785156 40.882812 97.410156 45.425781 88.539062 C 50.0625 79.46875 43.457031 69.03125 37.511719 62.472656 C 36.136719 60.953125 34.644531 59.4375 32.734375 58.699219 Z M 32.734375 58.699219 " fill-opacity="1" fill-rule="nonzero"/></g></g></g><g clip-path="url(#d7f7f78b65)"><g clip-path="url(#3ff2a029d1)"><g clip-path="url(#bef3394fcd)"><path fill="#aacfa8" d="M 111.351562 77.089844 C 102.714844 71.75 92.054688 69.765625 82.074219 71.648438 C 78.101562 72.398438 74.179688 73.769531 70.925781 76.167969 C 66.425781 79.488281 63.511719 84.511719 61.164062 89.585938 C 56.386719 99.914062 53.402344 111.097656 52.429688 122.4375 C 52.109375 126.21875 51.820312 129.8125 55.070312 132.332031 C 58.390625 134.90625 63.632812 136.195312 67.726562 135.980469 C 72.738281 135.722656 77.550781 133.460938 81.253906 130.074219 C 84.785156 126.84375 87.867188 122.363281 92.613281 121.777344 C 95.957031 121.367188 99.160156 123.078125 102.476562 123.679688 C 105.816406 124.285156 109.246094 123.746094 112.585938 123.132812 C 118.707031 122.015625 125.472656 120.164062 128.609375 114.789062 C 131.019531 110.660156 130.597656 105.453125 129.292969 100.855469 C 126.519531 91.085938 119.988281 82.433594 111.351562 77.089844 Z M 111.351562 77.089844 " fill-opacity="1" fill-rule="nonzero"/></g></g></g><g clip-path="url(#b1feb71f9d)"><g clip-path="url(#f39511b30f)"><g clip-path="url(#5a46c32da0)"><path fill="#091721" d="M 100.652344 69.324219 C 96.503906 66.710938 92.007812 64.457031 87.171875 63.46875 C 82.144531 62.441406 76.921875 63.183594 72.273438 65.320312 C 64.285156 69.152344 58.230469 77.242188 54.207031 84.855469 C 50.472656 91.921875 48.136719 99.710938 46.902344 107.589844 C 45.597656 115.902344 48.445312 124.777344 56.207031 128.902344 C 59.894531 130.863281 64.28125 131.3125 68.328125 130.355469 C 72.242188 129.429688 75.414062 127.117188 78.226562 124.328125 C 80.644531 121.925781 82.875 119.132812 86.117188 117.808594 C 90.734375 115.917969 95.269531 117.679688 99.753906 119.03125 C 103.851562 120.261719 108.042969 120.90625 112.25 119.871094 C 116.195312 118.894531 120.03125 116.808594 122.507812 113.523438 C 128.179688 106.003906 124.714844 96.746094 120.40625 89.511719 C 115.542969 81.347656 108.6875 74.382812 100.652344 69.324219 Z M 121.703125 109.757812 C 120.128906 113.078125 117.167969 115.300781 113.800781 116.59375 C 109.867188 118.105469 105.933594 117.941406 101.910156 116.886719 C 97.761719 115.800781 93.773438 113.980469 89.386719 114.3125 C 86.089844 114.5625 83.074219 116.046875 80.617188 118.207031 C 78.238281 120.304688 76.265625 122.828125 73.753906 124.78125 C 70.542969 127.273438 66.601562 128.566406 62.527344 128.097656 C 53.792969 127.082031 48.601562 118.746094 49.226562 110.371094 C 49.769531 103.050781 52.128906 95.476562 55.207031 88.839844 C 57.71875 83.425781 61.015625 78.363281 65.171875 74.058594 C 67.484375 71.664062 70.359375 69.183594 73.222656 67.808594 C 77.085938 66.035156 81.355469 65.238281 85.578125 65.890625 C 89.796875 66.542969 93.75 68.351562 97.421875 70.464844 C 104.285156 74.414062 110.304688 79.847656 115.011719 86.207031 C 119.65625 92.492188 125.46875 101.816406 121.703125 109.757812 Z M 121.703125 109.757812 " fill-opacity="1" fill-rule="nonzero"/></g></g></g><g clip-path="url(#6a2fc7dd95)"><g clip-path="url(#8761a4010c)"><g clip-path="url(#7b49bfc397)"><path fill="#091721" d="M 88.878906 58.660156 C 93 58.164062 96.238281 54.375 98.414062 51.144531 C 102.984375 44.355469 104.757812 35.683594 102.652344 27.714844 C 101.570312 23.628906 99.289062 19.851562 95.855469 17.328125 C 92.945312 15.191406 89.082031 13.597656 85.449219 14.625 C 80.035156 16.15625 76.871094 22.105469 76.25 27.3125 C 75.242188 35.722656 77.929688 44.492188 80.230469 52.476562 C 81.402344 56.066406 84.921875 59.136719 88.878906 58.660156 Z M 78.769531 32.394531 C 78.515625 27.875 79.136719 23.027344 82.457031 19.664062 C 84.511719 17.582031 86.925781 16.503906 89.859375 17.257812 C 93.183594 18.113281 96.097656 20.546875 97.925781 23.394531 C 101.792969 29.433594 101.597656 37.667969 99.078125 44.171875 C 97.695312 47.738281 95.566406 51.203125 92.703125 53.785156 C 91.046875 55.277344 88.890625 56.578125 86.609375 55.777344 C 84.667969 55.097656 83.34375 53.433594 82.71875 51.527344 C 80.925781 45.296875 79.132812 38.902344 78.769531 32.394531 Z M 78.769531 32.394531 " fill-opacity="1" fill-rule="nonzero"/></g></g></g><g clip-path="url(#58913de824)"><g clip-path="url(#3e33013fea)"><g clip-path="url(#a000d00db6)"><path fill="#091721" d="M 132.757812 33.617188 C 128.472656 27.355469 120.027344 29.863281 115.828125 34.875 C 112.917969 38.347656 111.164062 42.824219 109.847656 47.105469 C 108.390625 51.832031 107.148438 57.1875 108.210938 62.117188 C 108.222656 62.179688 108.261719 62.222656 108.28125 62.277344 C 108.289062 62.34375 108.273438 62.398438 108.292969 62.464844 C 109.15625 65.730469 111.320312 68.730469 114.773438 69.472656 C 117.9375 70.152344 121.109375 68.726562 123.710938 67.058594 C 129.691406 63.222656 134.238281 56.671875 135.367188 49.617188 C 136.191406 44.457031 135.789062 38.042969 132.757812 33.617188 Z M 132.964844 47.191406 C 132.554688 52.730469 129.9375 57.929688 126.011719 61.824219 C 123.789062 64.027344 120.800781 66.304688 117.644531 66.859375 C 113.992188 67.5 111.738281 64.929688 110.824219 61.65625 C 110.113281 58.113281 110.714844 54.492188 111.53125 51.015625 C 112.371094 47.421875 113.617188 43.890625 115.292969 40.601562 C 116.835938 37.558594 119 34.582031 122.242188 33.21875 C 124.789062 32.148438 127.875 32.132812 129.871094 34.25 C 132.886719 37.453125 133.269531 43.039062 132.964844 47.191406 Z M 132.964844 47.191406 " fill-opacity="1" fill-rule="nonzero"/></g></g></g><g clip-path="url(#b542ae1679)"><g clip-path="url(#aafe29454a)"><g clip-path="url(#0595c3f83c)"><path fill="#091721" d="M 48.070312 77.789062 C 48.125 69.550781 43.785156 61.527344 37.089844 56.78125 C 31.003906 52.472656 20.816406 49.8125 16.660156 58.023438 C 13.703125 63.867188 15.875 71.667969 19.199219 76.890625 C 22.316406 81.796875 28.117188 85.707031 33.527344 87.601562 C 36.46875 88.632812 39.917969 89.246094 42.851562 87.851562 C 46.6875 86.03125 47.9375 81.734375 48.070312 77.789062 Z M 41.394531 85.585938 C 39.253906 86.417969 36.742188 85.917969 34.648438 85.183594 C 30.085938 83.59375 25.367188 80.535156 22.339844 76.722656 C 19.125 72.671875 17.167969 66.5 18.289062 61.367188 C 18.925781 58.464844 20.957031 55.910156 23.992188 55.371094 C 27.496094 54.746094 31.273438 56.261719 34.214844 58.058594 C 41.085938 62.253906 45.472656 69.996094 45.417969 78.046875 C 45.320312 80.945312 44.367188 84.425781 41.394531 85.585938 Z M 41.394531 85.585938 " fill-opacity="1" fill-rule="nonzero"/></g></g></g><g clip-path="url(#3649dbd3a2)"><g clip-path="url(#00a1772530)"><g clip-path="url(#29ce85a772)"><path fill="#091721" d="M 50.953125 59.558594 C 54.414062 61.84375 59.085938 64.21875 63.367188 63.46875 C 67.808594 62.691406 70.175781 58.042969 69.558594 53.832031 C 68.210938 46.4375 66.832031 38.613281 63.28125 31.902344 C 60.710938 27.042969 56.6875 23.210938 51.070312 22.449219 C 42.3125 21.261719 37.734375 31.875 38.296875 39.097656 C 38.933594 47.351562 44.132812 55.0625 50.953125 59.558594 Z M 51.925781 25.3125 C 56.242188 26.304688 59.214844 29.695312 61.132812 33.515625 C 64.324219 39.882812 65.640625 47.144531 66.90625 54.085938 C 67.472656 57.96875 64.980469 61.324219 60.890625 60.875 C 57.511719 60.503906 54.113281 58.632812 51.421875 56.648438 C 45.925781 52.589844 41.730469 46.292969 41 39.410156 C 40.320312 33.035156 44.09375 23.519531 51.925781 25.3125 Z M 51.925781 25.3125 " fill-opacity="1" fill-rule="nonzero"/></g></g></g><g fill="#1f2c35" fill-opacity="1"><g transform="translate(137.488399, 75.038644)"><g><path d="M 32.125 -7.984375 L 15.265625 -7.984375 L 12.5625 0 L 1.03125 0 L 17.390625 -45.203125 L 30.140625 -45.203125 L 46.484375 0 L 34.828125 0 Z M 29.296875 -16.484375 L 23.703125 -33.03125 L 18.15625 -16.484375 Z M 29.296875 -16.484375 "/></g></g></g><g fill="#1f2c35" fill-opacity="1"><g transform="translate(184.947285, 75.038644)"><g><path d="M 20.921875 -45.203125 C 25.691406 -45.203125 29.859375 -44.253906 33.421875 -42.359375 C 36.984375 -40.472656 39.738281 -37.820312 41.6875 -34.40625 C 43.644531 -31 44.625 -27.0625 44.625 -22.59375 C 44.625 -18.175781 43.644531 -14.25 41.6875 -10.8125 C 39.738281 -7.382812 36.972656 -4.722656 33.390625 -2.828125 C 29.804688 -0.941406 25.648438 0 20.921875 0 L 4 0 L 4 -45.203125 Z M 20.21875 -9.53125 C 24.382812 -9.53125 27.625 -10.664062 29.9375 -12.9375 C 32.257812 -15.21875 33.421875 -18.4375 33.421875 -22.59375 C 33.421875 -26.757812 32.257812 -30 29.9375 -32.3125 C 27.625 -34.632812 24.382812 -35.796875 20.21875 -35.796875 L 15 -35.796875 L 15 -9.53125 Z M 20.21875 -9.53125 "/></g></g></g><g fill="#1f2c35" fill-opacity="1"><g transform="translate(231.762255, 75.038644)"><g><path d="M 25.375 0.453125 C 21.125 0.453125 17.226562 -0.53125 13.6875 -2.5 C 10.144531 -4.476562 7.332031 -7.238281 5.25 -10.78125 C 3.164062 -14.320312 2.125 -18.304688 2.125 -22.734375 C 2.125 -27.148438 3.164062 -31.117188 5.25 -34.640625 C 7.332031 -38.160156 10.144531 -40.90625 13.6875 -42.875 C 17.226562 -44.851562 21.125 -45.84375 25.375 -45.84375 C 29.625 -45.84375 33.519531 -44.851562 37.0625 -42.875 C 40.601562 -40.90625 43.390625 -38.160156 45.421875 -34.640625 C 47.460938 -31.117188 48.484375 -27.148438 48.484375 -22.734375 C 48.484375 -18.304688 47.453125 -14.320312 45.390625 -10.78125 C 43.328125 -7.238281 40.535156 -4.476562 37.015625 -2.5 C 33.503906 -0.53125 29.625 0.453125 25.375 0.453125 Z M 25.375 -9.59375 C 28.976562 -9.59375 31.863281 -10.796875 34.03125 -13.203125 C 36.195312 -15.609375 37.28125 -18.785156 37.28125 -22.734375 C 37.28125 -26.722656 36.195312 -29.90625 34.03125 -32.28125 C 31.863281 -34.664062 28.976562 -35.859375 25.375 -35.859375 C 21.71875 -35.859375 18.804688 -34.675781 16.640625 -32.3125 C 14.472656 -29.957031 13.390625 -26.765625 13.390625 -22.734375 C 13.390625 -18.734375 14.472656 -15.539062 16.640625 -13.15625 C 18.804688 -10.78125 21.71875 -9.59375 25.375 -9.59375 Z M 25.375 -9.59375 "/></g></g></g><g fill="#1f2c35" fill-opacity="1"><g transform="translate(282.37653, 75.038644)"><g><path d="M 38.4375 -30.65625 C 38.4375 -28.03125 37.832031 -25.632812 36.625 -23.46875 C 35.425781 -21.300781 33.582031 -19.550781 31.09375 -18.21875 C 28.601562 -16.882812 25.515625 -16.21875 21.828125 -16.21875 L 15 -16.21875 L 15 0 L 4 0 L 4 -45.203125 L 21.828125 -45.203125 C 25.429688 -45.203125 28.476562 -44.578125 30.96875 -43.328125 C 33.457031 -42.085938 35.320312 -40.375 36.5625 -38.1875 C 37.8125 -36 38.4375 -33.488281 38.4375 -30.65625 Z M 20.984375 -24.984375 C 23.085938 -24.984375 24.65625 -25.476562 25.6875 -26.46875 C 26.71875 -27.457031 27.234375 -28.851562 27.234375 -30.65625 C 27.234375 -32.457031 26.71875 -33.847656 25.6875 -34.828125 C 24.65625 -35.816406 23.085938 -36.3125 20.984375 -36.3125 L 15 -36.3125 L 15 -24.984375 Z M 20.984375 -24.984375 "/></g></g></g><g fill="#1f2c35" fill-opacity="1"><g transform="translate(322.558846, 75.038644)"><g><path d="M 36.515625 -45.203125 L 36.515625 -36.375 L 24.53125 -36.375 L 24.53125 0 L 13.515625 0 L 13.515625 -36.375 L 1.546875 -36.375 L 1.546875 -45.203125 Z M 36.515625 -45.203125 "/></g></g></g><path stroke-linecap="butt" transform="matrix(5.366191, 0, 0, 5.366191, 134.642544, 13.164695)" fill="none" stroke-linejoin="miter" d="M 5.988382 9.511838 L 2.844421 9.511838 L 2.340689 10.999742 L 0.193274 10.999742 L 3.240419 2.577508 L 5.616406 2.577508 L 8.662823 10.999742 L 6.492115 10.999742 Z M 5.460628 7.927119 L 4.41531 4.845032 L 3.383823 7.927119 Z M 12.74364 2.577508 C 13.632451 2.577508 14.408432 2.752941 15.072311 3.104534 C 15.736918 3.456128 16.250113 3.950398 16.613354 4.586615 C 16.978778 5.221376 17.161491 5.955137 17.161491 6.787169 C 17.161491 7.611194 16.978778 8.343499 16.613354 8.984084 C 16.250113 9.624668 15.734734 10.121122 15.066487 10.472715 C 14.398969 10.824309 13.624444 10.999742 12.74364 10.999742 L 9.588032 10.999742 L 9.588032 2.577508 Z M 12.611883 9.224303 C 13.387136 9.224303 13.990596 9.012473 14.422263 8.588814 C 14.856113 8.165154 15.072311 7.564606 15.072311 6.787169 C 15.072311 6.011916 14.856113 5.408456 14.422263 4.976789 C 13.990596 4.545122 13.387136 4.328925 12.611883 4.328925 L 11.638631 4.328925 L 11.638631 9.224303 Z M 22.29636 11.08491 C 21.503636 11.08491 20.777155 10.90147 20.116916 10.533862 C 19.456677 10.164798 18.932562 9.650146 18.543844 8.989907 C 18.157309 8.330396 17.963678 7.5879 17.963678 6.763875 C 17.963678 5.939122 18.157309 5.199538 18.543844 4.542938 C 18.932562 3.887067 19.456677 3.375327 20.116916 3.007719 C 20.777155 2.640838 21.503636 2.45667 22.29636 2.45667 C 23.087628 2.45667 23.813381 2.640838 24.47362 3.007719 C 25.133859 3.375327 25.652879 3.887067 26.032134 4.542938 C 26.412845 5.199538 26.603565 5.939122 26.603565 6.763875 C 26.603565 7.5879 26.410661 8.330396 26.02631 8.989907 C 25.643415 9.650146 25.123668 10.164798 24.467797 10.533862 C 23.811197 10.90147 23.087628 11.08491 22.29636 11.08491 Z M 22.29636 9.212656 C 22.968246 9.212656 23.50692 8.989179 23.910925 8.542226 C 24.31493 8.093088 24.517297 7.49982 24.517297 6.763875 C 24.517297 6.019195 24.31493 5.425926 23.910925 4.982613 C 23.50692 4.539299 22.968246 4.317278 22.29636 4.317278 C 21.617195 4.317278 21.074881 4.537115 20.670876 4.976789 C 20.266143 5.415735 20.064504 6.011916 20.064504 6.763875 C 20.064504 7.507827 20.266143 8.102552 20.670876 8.548049 C 21.074881 8.991363 21.617195 9.212656 22.29636 9.212656 Z M 34.163193 5.28689 C 34.163193 5.775336 34.051091 6.221562 33.826158 6.626295 C 33.603409 7.0303 33.259823 7.356416 32.795399 7.604642 C 32.332431 7.852869 31.75736 7.976618 31.06946 7.976618 L 29.794841 7.976618 L 29.794841 10.999742 L 27.744242 10.999742 L 27.744242 2.577508 L 31.06946 2.577508 C 31.741346 2.577508 32.309137 2.69325 32.771377 2.925462 C 33.236529 3.156218 33.584483 3.475782 33.814511 3.883427 C 34.046723 4.2918 34.163193 4.759864 34.163193 5.28689 Z M 30.911497 6.344583 C 31.303855 6.344583 31.595758 6.252863 31.787206 6.069423 C 31.980837 5.883799 32.077653 5.623197 32.077653 5.28689 C 32.077653 4.951311 31.980837 4.691438 31.787206 4.507997 C 31.595758 4.324557 31.303855 4.232109 30.911497 4.232109 L 29.794841 4.232109 L 29.794841 6.344583 Z M 41.291154 2.577508 L 41.291154 4.220462 L 39.061483 4.220462 L 39.061483 10.999742 L 37.007972 10.999742 L 37.007972 4.220462 L 34.775388 4.220462 L 34.775388 2.577508 Z M 41.291154 2.577508 " stroke="#091721" stroke-width="0.45" stroke-opacity="1" stroke-miterlimit="4"/><g fill="#1f2c35" fill-opacity="1"><g transform="translate(134.576016, 110.215889)"><g><path d="M 11.875 -25.65625 C 14.582031 -25.65625 16.945312 -25.117188 18.96875 -24.046875 C 20.988281 -22.972656 22.550781 -21.46875 23.65625 -19.53125 C 24.769531 -17.59375 25.328125 -15.359375 25.328125 -12.828125 C 25.328125 -10.316406 24.769531 -8.085938 23.65625 -6.140625 C 22.550781 -4.191406 20.976562 -2.679688 18.9375 -1.609375 C 16.90625 -0.535156 14.550781 0 11.875 0 L 2.265625 0 L 2.265625 -25.65625 Z M 11.46875 -5.40625 C 13.832031 -5.40625 15.671875 -6.050781 16.984375 -7.34375 C 18.304688 -8.632812 18.96875 -10.460938 18.96875 -12.828125 C 18.96875 -15.191406 18.304688 -17.03125 16.984375 -18.34375 C 15.671875 -19.65625 13.832031 -20.3125 11.46875 -20.3125 L 8.515625 -20.3125 L 8.515625 -5.40625 Z M 11.46875 -5.40625 "/></g></g></g><g fill="#1f2c35" fill-opacity="1"><g transform="translate(161.144351, 110.215889)"><g><path d="M 14.40625 0.25 C 11.988281 0.25 9.773438 -0.304688 7.765625 -1.421875 C 5.753906 -2.546875 4.15625 -4.113281 2.96875 -6.125 C 1.789062 -8.132812 1.203125 -10.394531 1.203125 -12.90625 C 1.203125 -15.414062 1.789062 -17.664062 2.96875 -19.65625 C 4.15625 -21.65625 5.753906 -23.210938 7.765625 -24.328125 C 9.773438 -25.453125 11.988281 -26.015625 14.40625 -26.015625 C 16.8125 -26.015625 19.019531 -25.453125 21.03125 -24.328125 C 23.039062 -23.210938 24.625 -21.65625 25.78125 -19.65625 C 26.9375 -17.664062 27.515625 -15.414062 27.515625 -12.90625 C 27.515625 -10.394531 26.929688 -8.132812 25.765625 -6.125 C 24.597656 -4.113281 23.015625 -2.546875 21.015625 -1.421875 C 19.015625 -0.304688 16.8125 0.25 14.40625 0.25 Z M 14.40625 -5.453125 C 16.445312 -5.453125 18.082031 -6.128906 19.3125 -7.484375 C 20.539062 -8.847656 21.15625 -10.65625 21.15625 -12.90625 C 21.15625 -15.164062 20.539062 -16.972656 19.3125 -18.328125 C 18.082031 -19.679688 16.445312 -20.359375 14.40625 -20.359375 C 12.332031 -20.359375 10.679688 -19.6875 9.453125 -18.34375 C 8.222656 -17.007812 7.609375 -15.195312 7.609375 -12.90625 C 7.609375 -10.632812 8.222656 -8.820312 9.453125 -7.46875 C 10.679688 -6.125 12.332031 -5.453125 14.40625 -5.453125 Z M 14.40625 -5.453125 "/></g></g></g><g fill="#1f2c35" fill-opacity="1"><g transform="translate(189.868861, 110.215889)"><g><path d="M 25.21875 0 L 18.96875 0 L 8.515625 -15.828125 L 8.515625 0 L 2.265625 0 L 2.265625 -25.65625 L 8.515625 -25.65625 L 18.96875 -9.765625 L 18.96875 -25.65625 L 25.21875 -25.65625 Z M 25.21875 0 "/></g></g></g><g fill="#1f2c35" fill-opacity="1"><g transform="translate(217.350829, 110.215889)"><g><path d="M 3.6875 -25.65625 L 10.09375 -25.65625 L 6 -15.859375 L 1.796875 -15.859375 Z M 3.6875 -25.65625 "/></g></g></g><g fill="#1f2c35" fill-opacity="1"><g transform="translate(228.825994, 110.215889)"><g><path d="M 20.71875 -25.65625 L 20.71875 -20.65625 L 13.921875 -20.65625 L 13.921875 0 L 7.671875 0 L 7.671875 -20.65625 L 0.875 -20.65625 L 0.875 -25.65625 Z M 20.71875 -25.65625 "/></g></g></g><g fill="#1f2c35" fill-opacity="1"><g transform="translate(250.42421, 110.215889)"><g/></g></g><g fill="#1f2c35" fill-opacity="1"><g transform="translate(258.171798, 110.215889)"><g><path d="M 11.546875 0.25 C 9.671875 0.25 7.988281 -0.0507812 6.5 -0.65625 C 5.019531 -1.269531 3.832031 -2.171875 2.9375 -3.359375 C 2.050781 -4.554688 1.582031 -5.992188 1.53125 -7.671875 L 8.1875 -7.671875 C 8.28125 -6.722656 8.609375 -6 9.171875 -5.5 C 9.734375 -5 10.460938 -4.75 11.359375 -4.75 C 12.285156 -4.75 13.015625 -4.960938 13.546875 -5.390625 C 14.085938 -5.816406 14.359375 -6.40625 14.359375 -7.15625 C 14.359375 -7.789062 14.144531 -8.316406 13.71875 -8.734375 C 13.289062 -9.148438 12.765625 -9.488281 12.140625 -9.75 C 11.523438 -10.019531 10.644531 -10.328125 9.5 -10.671875 C 7.84375 -11.179688 6.488281 -11.691406 5.4375 -12.203125 C 4.394531 -12.710938 3.492188 -13.46875 2.734375 -14.46875 C 1.984375 -15.46875 1.609375 -16.773438 1.609375 -18.390625 C 1.609375 -20.773438 2.472656 -22.640625 4.203125 -23.984375 C 5.929688 -25.335938 8.1875 -26.015625 10.96875 -26.015625 C 13.789062 -26.015625 16.066406 -25.335938 17.796875 -23.984375 C 19.523438 -22.640625 20.453125 -20.757812 20.578125 -18.34375 L 13.8125 -18.34375 C 13.757812 -19.175781 13.453125 -19.828125 12.890625 -20.296875 C 12.335938 -20.773438 11.625 -21.015625 10.75 -21.015625 C 9.988281 -21.015625 9.375 -20.8125 8.90625 -20.40625 C 8.445312 -20.007812 8.21875 -19.429688 8.21875 -18.671875 C 8.21875 -17.847656 8.609375 -17.203125 9.390625 -16.734375 C 10.171875 -16.273438 11.390625 -15.773438 13.046875 -15.234375 C 14.703125 -14.679688 16.046875 -14.144531 17.078125 -13.625 C 18.117188 -13.113281 19.015625 -12.367188 19.765625 -11.390625 C 20.523438 -10.421875 20.90625 -9.171875 20.90625 -7.640625 C 20.90625 -6.179688 20.53125 -4.851562 19.78125 -3.65625 C 19.039062 -2.457031 17.960938 -1.503906 16.546875 -0.796875 C 15.140625 -0.0976562 13.472656 0.25 11.546875 0.25 Z M 11.546875 0.25 "/></g></g></g><g fill="#1f2c35" fill-opacity="1"><g transform="translate(280.647075, 110.215889)"><g><path d="M 24.484375 -25.65625 L 24.484375 0 L 18.234375 0 L 18.234375 -10.5625 L 8.515625 -10.5625 L 8.515625 0 L 2.265625 0 L 2.265625 -25.65625 L 8.515625 -25.65625 L 8.515625 -15.609375 L 18.234375 -15.609375 L 18.234375 -25.65625 Z M 24.484375 -25.65625 "/></g></g></g><g fill="#1f2c35" fill-opacity="1"><g transform="translate(307.361602, 110.215889)"><g><path d="M 14.40625 0.25 C 11.988281 0.25 9.773438 -0.304688 7.765625 -1.421875 C 5.753906 -2.546875 4.15625 -4.113281 2.96875 -6.125 C 1.789062 -8.132812 1.203125 -10.394531 1.203125 -12.90625 C 1.203125 -15.414062 1.789062 -17.664062 2.96875 -19.65625 C 4.15625 -21.65625 5.753906 -23.210938 7.765625 -24.328125 C 9.773438 -25.453125 11.988281 -26.015625 14.40625 -26.015625 C 16.8125 -26.015625 19.019531 -25.453125 21.03125 -24.328125 C 23.039062 -23.210938 24.625 -21.65625 25.78125 -19.65625 C 26.9375 -17.664062 27.515625 -15.414062 27.515625 -12.90625 C 27.515625 -10.394531 26.929688 -8.132812 25.765625 -6.125 C 24.597656 -4.113281 23.015625 -2.546875 21.015625 -1.421875 C 19.015625 -0.304688 16.8125 0.25 14.40625 0.25 Z M 14.40625 -5.453125 C 16.445312 -5.453125 18.082031 -6.128906 19.3125 -7.484375 C 20.539062 -8.847656 21.15625 -10.65625 21.15625 -12.90625 C 21.15625 -15.164062 20.539062 -16.972656 19.3125 -18.328125 C 18.082031 -19.679688 16.445312 -20.359375 14.40625 -20.359375 C 12.332031 -20.359375 10.679688 -19.6875 9.453125 -18.34375 C 8.222656 -17.007812 7.609375 -15.195312 7.609375 -12.90625 C 7.609375 -10.632812 8.222656 -8.820312 9.453125 -7.46875 C 10.679688 -6.125 12.332031 -5.453125 14.40625 -5.453125 Z M 14.40625 -5.453125 "/></g></g></g><g fill="#1f2c35" fill-opacity="1"><g transform="translate(336.086112, 110.215889)"><g><path d="M 21.8125 -17.390625 C 21.8125 -15.910156 21.46875 -14.550781 20.78125 -13.3125 C 20.101562 -12.082031 19.054688 -11.085938 17.640625 -10.328125 C 16.234375 -9.578125 14.484375 -9.203125 12.390625 -9.203125 L 8.515625 -9.203125 L 8.515625 0 L 2.265625 0 L 2.265625 -25.65625 L 12.390625 -25.65625 C 14.429688 -25.65625 16.160156 -25.300781 17.578125 -24.59375 C 18.992188 -23.882812 20.050781 -22.910156 20.75 -21.671875 C 21.457031 -20.429688 21.8125 -19.003906 21.8125 -17.390625 Z M 11.921875 -14.1875 C 13.109375 -14.1875 13.992188 -14.460938 14.578125 -15.015625 C 15.160156 -15.578125 15.453125 -16.367188 15.453125 -17.390625 C 15.453125 -18.421875 15.160156 -19.210938 14.578125 -19.765625 C 13.992188 -20.328125 13.109375 -20.609375 11.921875 -20.609375 L 8.515625 -20.609375 L 8.515625 -14.1875 Z M 11.921875 -14.1875 "/></g></g></g><path stroke-linecap="butt" transform="matrix(3.04541, 0, 0, 3.04541, 132.485093, 75.101314)" fill="none" stroke-linejoin="miter" d="M 4.055561 2.576962 C 4.94445 2.576962 5.720464 2.752688 6.384887 3.104139 C 7.049309 3.45559 7.562376 3.9507 7.925371 4.586903 C 8.290932 5.221824 8.47307 5.95551 8.47307 6.786679 C 8.47307 7.611435 8.290932 8.343838 7.925371 8.98389 C 7.562376 9.625224 7.046743 10.121617 6.378473 10.473068 C 5.711486 10.824519 4.936754 11.000244 4.055561 11.000244 L 0.900197 11.000244 L 0.900197 2.576962 Z M 3.923446 9.225032 C 4.699461 9.225032 5.302315 9.012109 5.734574 8.588828 C 6.168116 8.165548 6.384887 7.563976 6.384887 6.786679 C 6.384887 6.011948 6.168116 5.407811 5.734574 4.976834 C 5.302315 4.544575 4.699461 4.329087 3.923446 4.329087 L 2.951184 4.329087 L 2.951184 9.225032 Z M 13.608874 11.0849 C 12.816185 11.0849 12.088912 10.901479 11.429621 10.534636 C 10.769047 10.165227 10.244435 9.650877 9.855787 8.990303 C 9.469704 8.329729 9.276021 7.588347 9.276021 6.763591 C 9.276021 5.938836 9.469704 5.198736 9.855787 4.543293 C 10.244435 3.886566 10.769047 3.374782 11.429621 3.007939 C 12.088912 2.641096 12.816185 2.456391 13.608874 2.456391 C 14.40028 2.456391 15.124988 2.641096 15.785562 3.007939 C 16.446136 3.374782 16.965617 3.886566 17.344004 4.543293 C 17.724956 5.198736 17.916074 5.938836 17.916074 6.763591 C 17.916074 7.588347 17.723674 8.329729 17.338873 8.990303 C 16.955355 9.650877 16.435875 10.165227 15.779149 10.534636 C 15.123705 10.901479 14.40028 11.0849 13.608874 11.0849 Z M 13.608874 9.213488 C 14.280992 9.213488 14.81843 8.989021 15.222471 8.541369 C 15.627794 8.092435 15.829173 7.499843 15.829173 6.763591 C 15.829173 6.019644 15.627794 5.425768 15.222471 4.981965 C 14.81843 4.539445 14.280992 4.317543 13.608874 4.317543 C 12.92906 4.317543 12.387774 4.536879 11.982451 4.976834 C 11.57841 5.415507 11.377031 6.011948 11.377031 6.763591 C 11.377031 7.507539 11.57841 8.102697 11.982451 8.547783 C 12.387774 8.991586 12.92906 9.213488 13.608874 9.213488 Z M 26.592042 11.000244 L 24.541055 11.000244 L 21.107352 5.802873 L 21.107352 11.000244 L 19.056366 11.000244 L 19.056366 2.576962 L 21.107352 2.576962 L 24.541055 7.794856 L 24.541055 2.576962 L 26.592042 2.576962 Z M 28.549393 2.576962 L 30.646556 2.576962 L 29.304885 5.791329 L 27.924734 5.791329 Z M 37.907741 2.576962 L 37.907741 4.221343 L 35.677181 4.221343 L 35.677181 11.000244 L 33.623629 11.000244 L 33.623629 4.221343 L 31.391786 4.221343 L 31.391786 2.576962 Z M 44.531439 11.0849 C 43.915759 11.0849 43.364211 10.984852 42.876797 10.786039 C 42.388101 10.58466 41.996887 10.288363 41.704439 9.895867 C 41.413273 9.503371 41.260635 9.031349 41.243961 8.481084 L 43.429627 8.481084 C 43.461694 8.792772 43.568155 9.031349 43.75286 9.19553 C 43.936281 9.359712 44.17614 9.441802 44.472437 9.441802 C 44.777712 9.441802 45.017571 9.371256 45.193296 9.230162 C 45.369022 9.090351 45.457526 8.895386 45.457526 8.647831 C 45.457526 8.440039 45.386979 8.268161 45.245886 8.132198 C 45.106075 7.994953 44.932914 7.883361 44.727688 7.794856 C 44.525026 7.707635 44.235143 7.607587 43.860604 7.495995 C 43.31547 7.327965 42.871667 7.159936 42.527912 6.991906 C 42.184156 6.823877 41.88786 6.576322 41.640305 6.247959 C 41.391468 5.919596 41.268331 5.492467 41.268331 4.96529 C 41.268331 4.180297 41.551801 3.565899 42.120023 3.122096 C 42.688245 2.678293 43.429627 2.456391 44.341604 2.456391 C 45.268974 2.456391 46.016769 2.678293 46.584991 3.122096 C 47.153213 3.565899 47.457206 4.184145 47.496968 4.976834 L 45.275387 4.976834 C 45.259995 4.704909 45.159947 4.490703 44.976525 4.3355 C 44.793104 4.179015 44.557093 4.100772 44.268492 4.100772 C 44.019655 4.100772 43.819558 4.167471 43.666921 4.299586 C 43.516849 4.430418 43.441171 4.620253 43.441171 4.867808 C 43.441171 5.139733 43.569438 5.351374 43.825972 5.504011 C 44.081223 5.656649 44.481415 5.82083 45.023984 5.996556 C 45.569118 6.179977 46.011638 6.355703 46.350263 6.523732 C 46.69017 6.691762 46.985184 6.935469 47.232739 7.256136 C 47.480294 7.576803 47.604712 7.988539 47.604712 8.492628 C 47.604712 8.972346 47.482859 9.409736 47.239152 9.802232 C 46.994162 10.192163 46.640146 10.503852 46.174537 10.736015 C 45.712777 10.968178 45.163795 11.0849 44.531439 11.0849 Z M 56.160109 2.576962 L 56.160109 11.000244 L 54.109123 11.000244 L 54.109123 7.530627 L 50.915279 7.530627 L 50.915279 11.000244 L 48.864293 11.000244 L 48.864293 2.576962 L 50.915279 2.576962 L 50.915279 5.875985 L 54.109123 5.875985 L 54.109123 2.576962 Z M 61.621711 11.0849 C 60.827739 11.0849 60.101749 10.901479 59.441175 10.534636 C 58.781883 10.165227 58.257272 9.650877 57.868623 8.990303 C 57.481258 8.329729 57.287575 7.588347 57.287575 6.763591 C 57.287575 5.938836 57.481258 5.198736 57.868623 4.543293 C 58.257272 3.886566 58.781883 3.374782 59.441175 3.007939 C 60.101749 2.641096 60.827739 2.456391 61.621711 2.456391 C 62.411834 2.456391 63.137824 2.641096 63.798399 3.007939 C 64.45769 3.374782 64.977171 3.886566 65.35684 4.543293 C 65.737793 5.198736 65.927628 5.938836 65.927628 6.763591 C 65.927628 7.588347 65.735228 8.329729 65.350427 8.990303 C 64.968192 9.650877 64.448711 10.165227 63.791985 10.534636 C 63.135259 10.901479 62.411834 11.0849 61.621711 11.0849 Z M 61.621711 9.213488 C 62.292546 9.213488 62.831267 8.989021 63.235307 8.541369 C 63.639348 8.092435 63.842009 7.499843 63.842009 6.763591 C 63.842009 6.019644 63.639348 5.425768 63.235307 4.981965 C 62.831267 4.539445 62.292546 4.317543 61.621711 4.317543 C 60.941896 4.317543 60.399328 4.536879 59.995287 4.976834 C 59.591247 5.415507 59.388585 6.011948 59.388585 6.763591 C 59.388585 7.507539 59.591247 8.102697 59.995287 8.547783 C 60.399328 8.991586 60.941896 9.213488 61.621711 9.213488 Z M 73.487674 5.28724 C 73.487674 5.775937 73.376082 6.222305 73.150333 6.626346 C 72.928431 7.030386 72.584676 7.356184 72.119067 7.605022 C 71.657307 7.852577 71.081389 7.976995 70.393879 7.976995 L 69.120189 7.976995 L 69.120189 11.000244 L 67.069203 11.000244 L 67.069203 2.576962 L 70.393879 2.576962 C 71.065997 2.576962 71.632936 2.693685 72.095979 2.925848 C 72.561588 3.156728 72.909191 3.476113 73.138789 3.884001 C 73.372234 4.29189 73.487674 4.760063 73.487674 5.28724 Z M 70.23611 6.344159 C 70.628607 6.344159 70.921055 6.253089 71.112173 6.069668 C 71.304573 5.883681 71.402056 5.623299 71.402056 5.28724 C 71.402056 4.951181 71.304573 4.690799 71.112173 4.507378 C 70.921055 4.323956 70.628607 4.232887 70.23611 4.232887 L 69.120189 4.232887 L 69.120189 6.344159 Z M 70.23611 6.344159 " stroke="#091721" stroke-width="0.45" stroke-opacity="1" stroke-miterlimit="4"/></svg>