<svg xmlns="http://www.w3.org/2000/svg" xmlns:xlink="http://www.w3.org/1999/xlink" width="50" zoomAndPan="magnify" viewBox="0 0 37.5 37.499999" height="50" preserveAspectRatio="xMidYMid meet" version="1.0"><defs><clipPath id="5f6bfac91c"><path d="M 9.761719 0 L 27.523438 0 L 27.523438 37 L 9.761719 37 Z M 9.761719 0 " clip-rule="nonzero"/></clipPath></defs><g clip-path="url(#5f6bfac91c)"><path fill="#aacfa8" d="M 23.210938 6.136719 L 27.246094 6.136719 L 27.246094 0.0546875 L 22.09375 0.0546875 L 22.09375 0.078125 C 15.324219 0.328125 13.925781 4.121094 13.808594 8.132812 L 13.792969 8.132812 L 13.792969 12.351562 L 9.761719 12.351562 L 9.761719 18.441406 L 13.792969 18.441406 L 13.792969 36.949219 L 21.03125 36.949219 L 21.03125 18.441406 L 26.222656 18.441406 L 27.246094 12.351562 L 21.03125 12.351562 L 21.03125 8.574219 C 21.03125 7.230469 21.933594 6.136719 23.210938 6.136719 Z M 23.210938 6.136719 " fill-opacity="1" fill-rule="nonzero"/></g></svg>