<svg xmlns="http://www.w3.org/2000/svg" xmlns:xlink="http://www.w3.org/1999/xlink" width="500" zoomAndPan="magnify" viewBox="0 0 375 149.999998" height="200" preserveAspectRatio="xMidYMid meet" version="1.0"><defs><clipPath id="8d2a73484e"><path d="M 228 29 L 259 29 L 259 73 L 228 73 Z M 228 29 " clip-rule="nonzero"/></clipPath><clipPath id="abac4ed28f"><path d="M 117.191406 14.519531 L 256.054688 1.175781 L 268.96875 135.554688 L 130.105469 148.902344 Z M 117.191406 14.519531 " clip-rule="nonzero"/></clipPath><clipPath id="b8997d7021"><path d="M 117.191406 14.519531 L 256.054688 1.175781 L 268.96875 135.554688 L 130.105469 148.902344 Z M 117.191406 14.519531 " clip-rule="nonzero"/></clipPath><clipPath id="08a2eeb7ce"><path d="M 198 12 L 225 12 L 225 60 L 198 60 Z M 198 12 " clip-rule="nonzero"/></clipPath><clipPath id="23a72c5c9d"><path d="M 117.191406 14.519531 L 256.054688 1.175781 L 268.96875 135.554688 L 130.105469 148.902344 Z M 117.191406 14.519531 " clip-rule="nonzero"/></clipPath><clipPath id="84762174a1"><path d="M 117.191406 14.519531 L 256.054688 1.175781 L 268.96875 135.554688 L 130.105469 148.902344 Z M 117.191406 14.519531 " clip-rule="nonzero"/></clipPath><clipPath id="c66b399df3"><path d="M 157 22 L 188 22 L 188 65 L 157 65 Z M 157 22 " clip-rule="nonzero"/></clipPath><clipPath id="0aa7a91c98"><path d="M 117.191406 14.519531 L 256.054688 1.175781 L 268.96875 135.554688 L 130.105469 148.902344 Z M 117.191406 14.519531 " clip-rule="nonzero"/></clipPath><clipPath id="dada048758"><path d="M 117.191406 14.519531 L 256.054688 1.175781 L 268.96875 135.554688 L 130.105469 148.902344 Z M 117.191406 14.519531 " clip-rule="nonzero"/></clipPath><clipPath id="469fc3aa98"><path d="M 130 56 L 160 56 L 160 94 L 130 94 Z M 130 56 " clip-rule="nonzero"/></clipPath><clipPath id="6cbf597117"><path d="M 117.191406 14.519531 L 256.054688 1.175781 L 268.96875 135.554688 L 130.105469 148.902344 Z M 117.191406 14.519531 " clip-rule="nonzero"/></clipPath><clipPath id="cec16ff7fe"><path d="M 117.191406 14.519531 L 256.054688 1.175781 L 268.96875 135.554688 L 130.105469 148.902344 Z M 117.191406 14.519531 " clip-rule="nonzero"/></clipPath><clipPath id="a74536287b"><path d="M 165 70 L 254 70 L 254 144 L 165 144 Z M 165 70 " clip-rule="nonzero"/></clipPath><clipPath id="76e5e600a1"><path d="M 117.191406 14.519531 L 256.054688 1.175781 L 268.96875 135.554688 L 130.105469 148.902344 Z M 117.191406 14.519531 " clip-rule="nonzero"/></clipPath><clipPath id="f561ad041e"><path d="M 117.191406 14.519531 L 256.054688 1.175781 L 268.96875 135.554688 L 130.105469 148.902344 Z M 117.191406 14.519531 " clip-rule="nonzero"/></clipPath><clipPath id="233b082b0f"><path d="M 158 61 L 248 61 L 248 138 L 158 138 Z M 158 61 " clip-rule="nonzero"/></clipPath><clipPath id="df2f5759cd"><path d="M 117.191406 14.519531 L 256.054688 1.175781 L 268.96875 135.554688 L 130.105469 148.902344 Z M 117.191406 14.519531 " clip-rule="nonzero"/></clipPath><clipPath id="dff8acd57f"><path d="M 117.191406 14.519531 L 256.054688 1.175781 L 268.96875 135.554688 L 130.105469 148.902344 Z M 117.191406 14.519531 " clip-rule="nonzero"/></clipPath><clipPath id="f34f942d62"><path d="M 191 6 L 223 6 L 223 57 L 191 57 Z M 191 6 " clip-rule="nonzero"/></clipPath><clipPath id="3887a31840"><path d="M 117.191406 14.519531 L 256.054688 1.175781 L 268.96875 135.554688 L 130.105469 148.902344 Z M 117.191406 14.519531 " clip-rule="nonzero"/></clipPath><clipPath id="2a1db70110"><path d="M 117.191406 14.519531 L 256.054688 1.175781 L 268.96875 135.554688 L 130.105469 148.902344 Z M 117.191406 14.519531 " clip-rule="nonzero"/></clipPath><clipPath id="49b08a2d3c"><path d="M 227 24 L 260 24 L 260 69 L 227 69 Z M 227 24 " clip-rule="nonzero"/></clipPath><clipPath id="0d84fdadb2"><path d="M 117.191406 14.519531 L 256.054688 1.175781 L 268.96875 135.554688 L 130.105469 148.902344 Z M 117.191406 14.519531 " clip-rule="nonzero"/></clipPath><clipPath id="4a3844761a"><path d="M 117.191406 14.519531 L 256.054688 1.175781 L 268.96875 135.554688 L 130.105469 148.902344 Z M 117.191406 14.519531 " clip-rule="nonzero"/></clipPath><clipPath id="f8df717c53"><path d="M 123 49 L 161 49 L 161 91 L 123 91 Z M 123 49 " clip-rule="nonzero"/></clipPath><clipPath id="a7212b614e"><path d="M 117.191406 14.519531 L 256.054688 1.175781 L 268.96875 135.554688 L 130.105469 148.902344 Z M 117.191406 14.519531 " clip-rule="nonzero"/></clipPath><clipPath id="60c2e54963"><path d="M 117.191406 14.519531 L 256.054688 1.175781 L 268.96875 135.554688 L 130.105469 148.902344 Z M 117.191406 14.519531 " clip-rule="nonzero"/></clipPath><clipPath id="0dc19aac9d"><path d="M 149 15 L 185 15 L 185 63 L 149 63 Z M 149 15 " clip-rule="nonzero"/></clipPath><clipPath id="2735215cc3"><path d="M 117.191406 14.519531 L 256.054688 1.175781 L 268.96875 135.554688 L 130.105469 148.902344 Z M 117.191406 14.519531 " clip-rule="nonzero"/></clipPath><clipPath id="7448a074f0"><path d="M 117.191406 14.519531 L 256.054688 1.175781 L 268.96875 135.554688 L 130.105469 148.902344 Z M 117.191406 14.519531 " clip-rule="nonzero"/></clipPath><clipPath id="c93cab327e"><path d="M 7.066406 72 L 14 72 L 14 78 L 7.066406 78 Z M 7.066406 72 " clip-rule="nonzero"/></clipPath><clipPath id="1946e2ded6"><path d="M 17 68 L 33 68 L 33 82.515625 L 17 82.515625 Z M 17 68 " clip-rule="nonzero"/></clipPath><clipPath id="a6ba68d90c"><path d="M 43 68 L 59 68 L 59 82.515625 L 43 82.515625 Z M 43 68 " clip-rule="nonzero"/></clipPath><clipPath id="ff414b468e"><path d="M 70 68 L 86 68 L 86 82.515625 L 70 82.515625 Z M 70 68 " clip-rule="nonzero"/></clipPath><clipPath id="c9ed7aa970"><path d="M 96 68 L 112 68 L 112 82.515625 L 96 82.515625 Z M 96 68 " clip-rule="nonzero"/></clipPath><clipPath id="1bfc430cb4"><path d="M 362 72 L 368.851562 72 L 368.851562 78 L 362 78 Z M 362 72 " clip-rule="nonzero"/></clipPath><clipPath id="200b81ac7c"><path d="M 343 68 L 359 68 L 359 82.515625 L 343 82.515625 Z M 343 68 " clip-rule="nonzero"/></clipPath><clipPath id="19f8490f61"><path d="M 317 68 L 333 68 L 333 82.515625 L 317 82.515625 Z M 317 68 " clip-rule="nonzero"/></clipPath><clipPath id="b76674a6dd"><path d="M 290 68 L 306 68 L 306 82.515625 L 290 82.515625 Z M 290 68 " clip-rule="nonzero"/></clipPath><clipPath id="ab95a97625"><path d="M 264 68 L 280 68 L 280 82.515625 L 264 82.515625 Z M 264 68 " clip-rule="nonzero"/></clipPath></defs><g clip-path="url(#8d2a73484e)"><g clip-path="url(#abac4ed28f)"><g clip-path="url(#b8997d7021)"><path fill="#aacfa8" d="M 254.492188 30.792969 C 251.269531 28.390625 246.542969 28.917969 243.175781 31.117188 C 239.808594 33.3125 237.566406 36.855469 235.753906 40.4375 C 232.097656 47.660156 223.035156 66.902344 234.511719 71.796875 C 238.429688 73.46875 243.140625 72.265625 246.503906 69.648438 C 249.867188 67.035156 252.074219 63.207031 253.765625 59.296875 C 255.851562 54.480469 257.28125 49.375 258.007812 44.175781 C 258.675781 39.371094 258.378906 33.6875 254.492188 30.792969 Z M 254.492188 30.792969 " fill-opacity="1" fill-rule="nonzero"/></g></g></g><g clip-path="url(#08a2eeb7ce)"><g clip-path="url(#23a72c5c9d)"><g clip-path="url(#84762174a1)"><path fill="#aacfa8" d="M 205.894531 58.460938 C 219.675781 64.894531 225.570312 36.90625 224.332031 28.574219 C 223.363281 22.070312 219.382812 15.753906 213.265625 13.339844 C 210.378906 12.195312 206.878906 12.042969 204.339844 13.828125 C 201.769531 15.636719 200.769531 18.921875 200.128906 21.996094 C 198.269531 30.933594 194.867188 53.3125 205.894531 58.460938 Z M 205.894531 58.460938 " fill-opacity="1" fill-rule="nonzero"/></g></g></g><g clip-path="url(#c66b399df3)"><g clip-path="url(#0aa7a91c98)"><g clip-path="url(#dada048758)"><path fill="#aacfa8" d="M 171.347656 62.753906 C 178.671875 68.210938 186.957031 60.953125 187.351562 53.117188 C 187.550781 49.113281 186.371094 45.171875 185.035156 41.386719 C 183.421875 36.808594 181.515625 32.234375 178.378906 28.53125 C 176.296875 26.070312 173.628906 24.015625 170.53125 23.125 C 167.433594 22.238281 163.882812 22.644531 161.339844 24.625 C 157.238281 27.820312 156.839844 33.894531 157.808594 39 C 159.382812 47.292969 164.375 57.558594 171.347656 62.753906 Z M 171.347656 62.753906 " fill-opacity="1" fill-rule="nonzero"/></g></g></g><g clip-path="url(#469fc3aa98)"><g clip-path="url(#6cbf597117)"><g clip-path="url(#cec16ff7fe)"><path fill="#aacfa8" d="M 143.265625 56.664062 C 139.6875 55.28125 135.378906 56.753906 132.910156 59.691406 C 130.441406 62.628906 129.671875 66.746094 130.265625 70.539062 C 130.859375 74.328125 132.695312 77.828125 134.9375 80.941406 C 138.578125 85.996094 152.425781 100.191406 157.53125 90.214844 C 162.75 80.019531 155.324219 68.285156 148.636719 60.90625 C 147.089844 59.199219 145.414062 57.496094 143.265625 56.664062 Z M 143.265625 56.664062 " fill-opacity="1" fill-rule="nonzero"/></g></g></g><g clip-path="url(#a74536287b)"><g clip-path="url(#76e5e600a1)"><g clip-path="url(#f561ad041e)"><path fill="#aacfa8" d="M 231.660156 77.34375 C 221.945312 71.339844 209.964844 69.109375 198.742188 71.226562 C 194.273438 72.070312 189.863281 73.609375 186.203125 76.308594 C 181.144531 80.039062 177.871094 85.6875 175.230469 91.394531 C 169.855469 103.003906 166.5 115.582031 165.410156 128.332031 C 165.046875 132.582031 164.722656 136.625 168.378906 139.453125 C 172.113281 142.347656 178.003906 143.796875 182.609375 143.558594 C 188.246094 143.269531 193.65625 140.726562 197.820312 136.917969 C 201.785156 133.285156 205.253906 128.246094 210.589844 127.589844 C 214.351562 127.128906 217.949219 129.050781 221.675781 129.726562 C 225.433594 130.40625 229.292969 129.800781 233.046875 129.113281 C 239.929688 127.855469 247.535156 125.773438 251.0625 119.730469 C 253.773438 115.089844 253.300781 109.234375 251.832031 104.066406 C 248.714844 93.082031 241.371094 83.351562 231.660156 77.34375 Z M 231.660156 77.34375 " fill-opacity="1" fill-rule="nonzero"/></g></g></g><g clip-path="url(#233b082b0f)"><g clip-path="url(#df2f5759cd)"><g clip-path="url(#dff8acd57f)"><path fill="#1f2c35" d="M 219.628906 68.609375 C 214.964844 65.671875 209.90625 63.140625 204.46875 62.03125 C 198.820312 60.875 192.945312 61.707031 187.722656 64.109375 C 178.742188 68.417969 171.933594 77.515625 167.40625 86.078125 C 163.207031 94.023438 160.582031 102.777344 159.195312 111.636719 C 157.730469 120.984375 160.929688 130.964844 169.65625 135.601562 C 173.804688 137.804688 178.738281 138.308594 183.285156 137.234375 C 187.683594 136.195312 191.253906 133.589844 194.414062 130.457031 C 197.136719 127.753906 199.640625 124.613281 203.285156 123.125 C 208.480469 121 213.578125 122.980469 218.621094 124.5 C 223.222656 125.886719 227.9375 126.609375 232.671875 125.445312 C 237.105469 124.347656 241.417969 122.003906 244.203125 118.308594 C 250.582031 109.855469 246.683594 99.445312 241.839844 91.308594 C 236.371094 82.128906 228.664062 74.300781 219.628906 68.609375 Z M 243.296875 114.074219 C 241.53125 117.804688 238.199219 120.304688 234.414062 121.761719 C 229.988281 123.460938 225.566406 123.277344 221.042969 122.089844 C 216.378906 120.867188 211.894531 118.824219 206.960938 119.195312 C 203.257812 119.476562 199.863281 121.148438 197.105469 123.574219 C 194.425781 125.933594 192.210938 128.773438 189.382812 130.964844 C 185.777344 133.765625 181.34375 135.222656 176.761719 134.691406 C 166.945312 133.554688 161.105469 124.179688 161.808594 114.761719 C 162.421875 106.53125 165.070312 98.015625 168.53125 90.554688 C 171.355469 84.46875 175.0625 78.773438 179.734375 73.9375 C 182.335938 71.242188 185.566406 68.457031 188.789062 66.910156 C 193.128906 64.914062 197.933594 64.015625 202.683594 64.75 C 207.425781 65.484375 211.867188 67.519531 215.996094 69.894531 C 223.714844 74.335938 230.484375 80.441406 235.773438 87.597656 C 240.996094 94.660156 247.53125 105.144531 243.296875 114.074219 Z M 243.296875 114.074219 " fill-opacity="1" fill-rule="nonzero"/></g></g></g><g clip-path="url(#f34f942d62)"><g clip-path="url(#3887a31840)"><g clip-path="url(#2a1db70110)"><path fill="#1f2c35" d="M 206.390625 56.625 C 211.023438 56.0625 214.667969 51.804688 217.113281 48.171875 C 222.25 40.539062 224.246094 30.789062 221.875 21.832031 C 220.660156 17.234375 218.09375 12.984375 214.234375 10.148438 C 210.964844 7.75 206.617188 5.957031 202.535156 7.113281 C 196.445312 8.835938 192.890625 15.523438 192.191406 21.375 C 191.058594 30.835938 194.082031 40.691406 196.667969 49.671875 C 197.984375 53.707031 201.941406 57.160156 206.390625 56.625 Z M 195.027344 27.089844 C 194.742188 22.007812 195.4375 16.558594 199.167969 12.777344 C 201.480469 10.4375 204.195312 9.222656 207.492188 10.070312 C 211.234375 11.035156 214.507812 13.769531 216.5625 16.972656 C 220.910156 23.761719 220.691406 33.023438 217.859375 40.332031 C 216.304688 44.34375 213.910156 48.238281 210.691406 51.140625 C 208.828125 52.820312 206.402344 54.28125 203.839844 53.382812 C 201.65625 52.617188 200.167969 50.746094 199.464844 48.601562 C 197.445312 41.59375 195.433594 34.40625 195.027344 27.089844 Z M 195.027344 27.089844 " fill-opacity="1" fill-rule="nonzero"/></g></g></g><g clip-path="url(#49b08a2d3c)"><g clip-path="url(#0d84fdadb2)"><g clip-path="url(#4a3844761a)"><path fill="#1f2c35" d="M 255.726562 28.464844 C 250.910156 21.425781 241.414062 24.242188 236.691406 29.878906 C 233.421875 33.78125 231.449219 38.816406 229.96875 43.628906 C 228.332031 48.945312 226.929688 54.96875 228.125 60.507812 C 228.140625 60.582031 228.183594 60.625 228.207031 60.691406 C 228.214844 60.761719 228.199219 60.824219 228.21875 60.902344 C 229.1875 64.570312 231.621094 67.945312 235.503906 68.777344 C 239.0625 69.542969 242.628906 67.941406 245.554688 66.0625 C 252.277344 61.753906 257.390625 54.390625 258.660156 46.453125 C 259.585938 40.65625 259.136719 33.441406 255.726562 28.464844 Z M 255.957031 43.726562 C 255.5 49.953125 252.554688 55.804688 248.140625 60.179688 C 245.640625 62.65625 242.28125 65.214844 238.734375 65.839844 C 234.625 66.558594 232.09375 63.671875 231.066406 59.992188 C 230.265625 56.007812 230.941406 51.9375 231.859375 48.027344 C 232.804688 43.984375 234.207031 40.019531 236.089844 36.316406 C 237.828125 32.898438 240.253906 29.546875 243.902344 28.015625 C 246.765625 26.8125 250.234375 26.796875 252.480469 29.175781 C 255.871094 32.777344 256.300781 39.058594 255.957031 43.726562 Z M 255.957031 43.726562 " fill-opacity="1" fill-rule="nonzero"/></g></g></g><g clip-path="url(#f8df717c53)"><g clip-path="url(#a7212b614e)"><g clip-path="url(#60c2e54963)"><path fill="#1f2c35" d="M 160.511719 78.132812 C 160.570312 68.867188 155.691406 59.847656 148.160156 54.511719 C 141.320312 49.664062 129.863281 46.675781 125.191406 55.90625 C 121.867188 62.476562 124.3125 71.246094 128.042969 77.121094 C 131.554688 82.636719 138.074219 87.03125 144.160156 89.164062 C 147.464844 90.324219 151.339844 91.011719 154.640625 89.445312 C 158.957031 87.394531 160.359375 82.566406 160.511719 78.132812 Z M 153 86.894531 C 150.597656 87.832031 147.769531 87.269531 145.414062 86.445312 C 140.285156 84.65625 134.980469 81.21875 131.582031 76.929688 C 127.964844 72.375 125.761719 65.433594 127.023438 59.667969 C 127.738281 56.402344 130.023438 53.53125 133.4375 52.921875 C 137.375 52.222656 141.621094 53.925781 144.929688 55.945312 C 152.65625 60.664062 157.585938 69.367188 157.527344 78.417969 C 157.417969 81.679688 156.34375 85.59375 153 86.894531 Z M 153 86.894531 " fill-opacity="1" fill-rule="nonzero"/></g></g></g><g clip-path="url(#0dc19aac9d)"><g clip-path="url(#2735215cc3)"><g clip-path="url(#7448a074f0)"><path fill="#1f2c35" d="M 163.75 57.632812 C 167.640625 60.203125 172.894531 62.871094 177.710938 62.03125 C 182.699219 61.15625 185.359375 55.925781 184.667969 51.195312 C 183.152344 42.878906 181.601562 34.085938 177.609375 26.539062 C 174.722656 21.074219 170.195312 16.765625 163.878906 15.910156 C 154.035156 14.574219 148.886719 26.507812 149.519531 34.628906 C 150.234375 43.90625 156.082031 52.578125 163.75 57.632812 Z M 164.84375 19.128906 C 169.695312 20.242188 173.039062 24.054688 175.195312 28.351562 C 178.78125 35.507812 180.261719 43.675781 181.683594 51.480469 C 182.324219 55.84375 179.519531 59.617188 174.921875 59.109375 C 171.125 58.695312 167.300781 56.59375 164.277344 54.359375 C 158.09375 49.796875 153.378906 42.71875 152.558594 34.976562 C 151.796875 27.8125 156.035156 17.113281 164.84375 19.128906 Z M 164.84375 19.128906 " fill-opacity="1" fill-rule="nonzero"/></g></g></g><g clip-path="url(#c93cab327e)"><path fill="#aacfa8" d="M 9.746094 74.183594 C 9.824219 73.359375 9.023438 72.753906 8.285156 72.554688 C 8.054688 72.492188 7.808594 72.449219 7.589844 72.542969 C 7.226562 72.703125 7.070312 73.207031 7.148438 73.628906 C 7.230469 74.046875 7.480469 74.402344 7.730469 74.734375 C 8.53125 75.808594 9.378906 76.839844 10.269531 77.828125 C 11.027344 76.859375 11.789062 75.890625 12.550781 74.921875 C 12.789062 74.617188 13.035156 74.304688 13.152344 73.925781 C 13.265625 73.546875 13.226562 73.085938 12.953125 72.816406 C 12.785156 72.648438 12.550781 72.578125 12.324219 72.527344 C 11.785156 72.40625 11.199219 72.355469 10.691406 72.597656 C 10.183594 72.835938 9.785156 73.4375 9.898438 74.027344 " fill-opacity="1" fill-rule="nonzero"/></g><g clip-path="url(#1946e2ded6)"><path fill="#aacfa8" d="M 23.160156 82.425781 C 24.851562 80.917969 26.402344 78.875 28.097656 77.367188 C 29.1875 76.394531 30.296875 75.402344 31.074219 74.121094 C 31.855469 72.839844 32.265625 71.207031 31.828125 69.746094 C 31.6875 69.273438 31.449219 68.816406 31.078125 68.523438 C 30.78125 68.292969 30.414062 68.179688 30.054688 68.109375 C 27.164062 67.550781 24.070312 69.90625 23.554688 73.054688 C 23.671875 71.25 22.949219 69.308594 21.5 68.429688 C 20.050781 67.550781 17.910156 68.105469 17.253906 69.765625 C 16.828125 70.839844 17.058594 72.085938 17.390625 73.203125 C 18.453125 76.792969 20.480469 80.035156 23.160156 82.425781 " fill-opacity="1" fill-rule="nonzero"/></g><path fill="#aacfa8" d="M 36.363281 74.183594 C 36.445312 73.359375 35.644531 72.753906 34.902344 72.554688 C 34.675781 72.492188 34.425781 72.449219 34.210938 72.542969 C 33.84375 72.703125 33.691406 73.207031 33.769531 73.628906 C 33.847656 74.046875 34.097656 74.402344 34.347656 74.734375 C 35.148438 75.808594 35.996094 76.839844 36.886719 77.828125 C 37.648438 76.859375 38.410156 75.890625 39.171875 74.921875 C 39.410156 74.617188 39.652344 74.304688 39.769531 73.925781 C 39.886719 73.546875 39.84375 73.085938 39.574219 72.816406 C 39.402344 72.648438 39.167969 72.578125 38.945312 72.527344 C 38.402344 72.40625 37.820312 72.355469 37.3125 72.597656 C 36.804688 72.835938 36.40625 73.4375 36.519531 74.027344 " fill-opacity="1" fill-rule="nonzero"/><g clip-path="url(#a6ba68d90c)"><path fill="#aacfa8" d="M 49.78125 82.425781 C 51.472656 80.917969 53.023438 78.875 54.714844 77.367188 C 55.808594 76.394531 56.914062 75.402344 57.695312 74.121094 C 58.472656 72.839844 58.886719 71.207031 58.449219 69.746094 C 58.308594 69.273438 58.066406 68.816406 57.695312 68.523438 C 57.398438 68.292969 57.035156 68.179688 56.671875 68.109375 C 53.78125 67.550781 50.6875 69.90625 50.171875 73.054688 C 50.289062 71.25 49.570312 69.308594 48.117188 68.429688 C 46.667969 67.550781 44.527344 68.105469 43.871094 69.765625 C 43.445312 70.839844 43.679688 72.085938 44.007812 73.203125 C 45.070312 76.792969 47.101562 80.035156 49.78125 82.425781 " fill-opacity="1" fill-rule="nonzero"/></g><path fill="#aacfa8" d="M 62.980469 74.183594 C 63.0625 73.359375 62.261719 72.753906 61.523438 72.554688 C 61.292969 72.492188 61.046875 72.449219 60.828125 72.542969 C 60.460938 72.703125 60.308594 73.207031 60.386719 73.628906 C 60.464844 74.046875 60.71875 74.402344 60.964844 74.734375 C 61.769531 75.808594 62.617188 76.839844 63.507812 77.828125 C 64.265625 76.859375 65.027344 75.890625 65.789062 74.921875 C 66.027344 74.617188 66.269531 74.304688 66.386719 73.925781 C 66.503906 73.546875 66.464844 73.085938 66.191406 72.816406 C 66.023438 72.648438 65.789062 72.578125 65.5625 72.527344 C 65.019531 72.40625 64.4375 72.355469 63.929688 72.597656 C 63.421875 72.835938 63.023438 73.4375 63.136719 74.027344 " fill-opacity="1" fill-rule="nonzero"/><g clip-path="url(#ff414b468e)"><path fill="#aacfa8" d="M 76.398438 82.425781 C 78.089844 80.917969 79.640625 78.875 81.335938 77.367188 C 82.425781 76.394531 83.535156 75.402344 84.3125 74.121094 C 85.089844 72.839844 85.503906 71.207031 85.066406 69.746094 C 84.925781 69.273438 84.6875 68.816406 84.316406 68.523438 C 84.015625 68.292969 83.652344 68.179688 83.292969 68.109375 C 80.402344 67.550781 77.304688 69.90625 76.792969 73.054688 C 76.910156 71.25 76.1875 69.308594 74.738281 68.429688 C 73.289062 67.550781 71.148438 68.105469 70.492188 69.765625 C 70.0625 70.839844 70.296875 72.085938 70.625 73.203125 C 71.691406 76.792969 73.71875 80.035156 76.398438 82.425781 " fill-opacity="1" fill-rule="nonzero"/></g><path fill="#aacfa8" d="M 89.601562 74.183594 C 89.683594 73.359375 88.878906 72.753906 88.140625 72.554688 C 87.910156 72.492188 87.664062 72.449219 87.445312 72.542969 C 87.082031 72.703125 86.925781 73.207031 87.007812 73.628906 C 87.085938 74.046875 87.335938 74.402344 87.585938 74.734375 C 88.386719 75.808594 89.234375 76.839844 90.125 77.828125 C 90.886719 76.859375 91.644531 75.890625 92.40625 74.921875 C 92.644531 74.617188 92.890625 74.304688 93.007812 73.925781 C 93.121094 73.546875 93.082031 73.085938 92.808594 72.816406 C 92.640625 72.648438 92.40625 72.578125 92.179688 72.527344 C 91.640625 72.40625 91.054688 72.355469 90.546875 72.597656 C 90.039062 72.835938 89.640625 73.4375 89.757812 74.027344 " fill-opacity="1" fill-rule="nonzero"/><g clip-path="url(#c9ed7aa970)"><path fill="#aacfa8" d="M 103.015625 82.425781 C 104.710938 80.917969 106.261719 78.875 107.953125 77.367188 C 109.042969 76.394531 110.152344 75.402344 110.929688 74.121094 C 111.710938 72.839844 112.121094 71.207031 111.683594 69.746094 C 111.542969 69.273438 111.304688 68.816406 110.933594 68.523438 C 110.636719 68.292969 110.273438 68.179688 109.910156 68.109375 C 107.019531 67.550781 103.925781 69.90625 103.410156 73.054688 C 103.527344 71.25 102.808594 69.308594 101.355469 68.429688 C 99.90625 67.550781 97.765625 68.105469 97.109375 69.765625 C 96.683594 70.839844 96.914062 72.085938 97.246094 73.203125 C 98.308594 76.792969 100.335938 80.035156 103.015625 82.425781 " fill-opacity="1" fill-rule="nonzero"/></g><g clip-path="url(#1bfc430cb4)"><path fill="#aacfa8" d="M 366.230469 74.183594 C 366.148438 73.359375 366.949219 72.753906 367.691406 72.554688 C 367.917969 72.492188 368.167969 72.449219 368.382812 72.542969 C 368.75 72.703125 368.902344 73.207031 368.824219 73.628906 C 368.746094 74.046875 368.496094 74.402344 368.246094 74.734375 C 367.445312 75.808594 366.597656 76.839844 365.707031 77.828125 C 364.945312 76.859375 364.183594 75.890625 363.421875 74.921875 C 363.183594 74.617188 362.941406 74.304688 362.824219 73.925781 C 362.707031 73.546875 362.75 73.085938 363.019531 72.816406 C 363.191406 72.648438 363.425781 72.578125 363.648438 72.527344 C 364.191406 72.40625 364.773438 72.355469 365.28125 72.597656 C 365.789062 72.835938 366.1875 73.4375 366.074219 74.027344 " fill-opacity="1" fill-rule="nonzero"/></g><g clip-path="url(#200b81ac7c)"><path fill="#aacfa8" d="M 352.8125 82.425781 C 351.121094 80.917969 349.570312 78.875 347.878906 77.367188 C 346.785156 76.394531 345.679688 75.402344 344.898438 74.121094 C 344.121094 72.839844 343.707031 71.207031 344.144531 69.746094 C 344.289062 69.273438 344.527344 68.816406 344.898438 68.523438 C 345.195312 68.292969 345.558594 68.179688 345.921875 68.109375 C 348.8125 67.550781 351.90625 69.90625 352.421875 73.054688 C 352.304688 71.25 353.023438 69.308594 354.476562 68.429688 C 355.925781 67.550781 358.0625 68.105469 358.722656 69.765625 C 359.148438 70.839844 358.914062 72.085938 358.585938 73.203125 C 357.523438 76.792969 355.492188 80.035156 352.8125 82.425781 " fill-opacity="1" fill-rule="nonzero"/></g><path fill="#aacfa8" d="M 339.613281 74.183594 C 339.53125 73.359375 340.332031 72.753906 341.074219 72.554688 C 341.300781 72.492188 341.546875 72.449219 341.765625 72.542969 C 342.132812 72.703125 342.285156 73.207031 342.207031 73.628906 C 342.128906 74.046875 341.875 74.402344 341.628906 74.734375 C 340.824219 75.808594 339.976562 76.839844 339.085938 77.828125 C 338.328125 76.859375 337.566406 75.890625 336.804688 74.921875 C 336.566406 74.617188 336.320312 74.304688 336.207031 73.925781 C 336.089844 73.546875 336.132812 73.085938 336.402344 72.816406 C 336.574219 72.648438 336.804688 72.578125 337.03125 72.527344 C 337.574219 72.40625 338.15625 72.355469 338.664062 72.597656 C 339.171875 72.835938 339.570312 73.4375 339.457031 74.027344 " fill-opacity="1" fill-rule="nonzero"/><g clip-path="url(#19f8490f61)"><path fill="#aacfa8" d="M 326.195312 82.425781 C 324.503906 80.917969 322.953125 78.875 321.261719 77.367188 C 320.167969 76.394531 319.058594 75.402344 318.28125 74.121094 C 317.503906 72.839844 317.089844 71.207031 317.527344 69.746094 C 317.667969 69.273438 317.90625 68.816406 318.277344 68.523438 C 318.578125 68.292969 318.941406 68.179688 319.304688 68.109375 C 322.191406 67.550781 325.285156 69.90625 325.800781 73.054688 C 325.683594 71.25 326.40625 69.308594 327.855469 68.429688 C 329.308594 67.550781 331.445312 68.105469 332.101562 69.765625 C 332.53125 70.839844 332.296875 72.085938 331.964844 73.203125 C 330.902344 76.792969 328.875 80.035156 326.195312 82.425781 " fill-opacity="1" fill-rule="nonzero"/></g><path fill="#aacfa8" d="M 312.992188 74.183594 C 312.910156 73.359375 313.714844 72.753906 314.453125 72.554688 C 314.679688 72.492188 314.929688 72.449219 315.148438 72.542969 C 315.511719 72.703125 315.667969 73.207031 315.585938 73.628906 C 315.507812 74.046875 315.257812 74.402344 315.007812 74.734375 C 314.207031 75.808594 313.359375 76.839844 312.46875 77.828125 C 311.707031 76.859375 310.945312 75.890625 310.1875 74.921875 C 309.949219 74.617188 309.703125 74.304688 309.585938 73.925781 C 309.472656 73.546875 309.511719 73.085938 309.785156 72.816406 C 309.953125 72.648438 310.1875 72.578125 310.414062 72.527344 C 310.953125 72.40625 311.539062 72.355469 312.046875 72.597656 C 312.554688 72.835938 312.953125 73.4375 312.835938 74.027344 " fill-opacity="1" fill-rule="nonzero"/><g clip-path="url(#b76674a6dd)"><path fill="#aacfa8" d="M 299.578125 82.425781 C 297.882812 80.917969 296.332031 78.875 294.640625 77.367188 C 293.550781 76.394531 292.441406 75.402344 291.664062 74.121094 C 290.882812 72.839844 290.472656 71.207031 290.90625 69.746094 C 291.050781 69.273438 291.289062 68.816406 291.660156 68.523438 C 291.957031 68.292969 292.320312 68.179688 292.683594 68.109375 C 295.574219 67.550781 298.667969 69.90625 299.183594 73.054688 C 299.066406 71.25 299.789062 69.308594 301.238281 68.429688 C 302.6875 67.550781 304.828125 68.105469 305.484375 69.765625 C 305.910156 70.839844 305.679688 72.085938 305.347656 73.203125 C 304.285156 76.792969 302.257812 80.035156 299.578125 82.425781 " fill-opacity="1" fill-rule="nonzero"/></g><path fill="#aacfa8" d="M 286.375 74.183594 C 286.292969 73.359375 287.09375 72.753906 287.835938 72.554688 C 288.0625 72.492188 288.308594 72.449219 288.527344 72.542969 C 288.894531 72.703125 289.046875 73.207031 288.96875 73.628906 C 288.890625 74.046875 288.636719 74.402344 288.390625 74.734375 C 287.589844 75.808594 286.742188 76.839844 285.851562 77.828125 C 285.089844 76.859375 284.328125 75.890625 283.566406 74.921875 C 283.328125 74.617188 283.085938 74.304688 282.96875 73.925781 C 282.851562 73.546875 282.894531 73.085938 283.164062 72.816406 C 283.335938 72.648438 283.566406 72.578125 283.792969 72.527344 C 284.335938 72.40625 284.917969 72.355469 285.425781 72.597656 C 285.933594 72.835938 286.332031 73.4375 286.21875 74.027344 " fill-opacity="1" fill-rule="nonzero"/><g clip-path="url(#ab95a97625)"><path fill="#aacfa8" d="M 272.957031 82.425781 C 271.265625 80.917969 269.714844 78.875 268.023438 77.367188 C 266.929688 76.394531 265.820312 75.402344 265.042969 74.121094 C 264.265625 72.839844 263.851562 71.207031 264.289062 69.746094 C 264.429688 69.273438 264.667969 68.816406 265.042969 68.523438 C 265.339844 68.292969 265.703125 68.179688 266.066406 68.109375 C 268.957031 67.550781 272.050781 69.90625 272.566406 73.054688 C 272.449219 71.25 273.167969 69.308594 274.617188 68.429688 C 276.070312 67.550781 278.207031 68.105469 278.867188 69.765625 C 279.292969 70.839844 279.058594 72.085938 278.730469 73.203125 C 277.667969 76.792969 275.636719 80.035156 272.957031 82.425781 " fill-opacity="1" fill-rule="nonzero"/></g></svg>